<svg xmlns="http://www.w3.org/2000/svg" xmlns:xlink="http://www.w3.org/1999/xlink" xmlns:lucid="lucid" width="1493.19" height="895.96"><g transform="translate(1944.352310231023 234.16666666666669)" lucid:page-tab-id="0_0"><path d="M-1015.33-30.67a2 2 0 0 1 2-2h316a2 2 0 0 1 2 2v396a2 2 0 0 1-2 2h-316a2 2 0 0 1-2-2z" fill="#f6f6f6"/><path d="M-963.6-4.58c0-2.28.84-4.2 2.47-5.8 1.63-1.6 3.6-2.4 5.87-2.38 1.05 0 2.06.18 3.03.57.97.4 1.84.96 2.58 1.7l-1.64 1.57c-1.1-1.08-2.42-1.6-3.97-1.6-1.05 0-2.07.27-3 .8-.9.54-1.62 1.27-2.15 2.2-.53.93-.76 1.92-.73 3-.03 1.05.2 2.04.73 2.97.53.93 1.25 1.66 2.16 2.2.92.53 1.94.8 3 .8.78.03 1.5-.1 2.23-.38.7-.28 1.33-.7 1.88-1.26.74-.8 1.15-1.73 1.22-2.8h-5.34v-2.32h7.48c.1.46.15.92.15 1.4.07 2-.6 3.74-1.96 5.22-.74.77-1.6 1.35-2.58 1.75-1 .4-2.03.6-3.1.55-2.26 0-4.22-.78-5.85-2.38-1.63-1.6-2.46-3.53-2.48-5.8zm0 0M-941.58-6.94c-1.45 0-2.7.52-3.73 1.55-1.04 1.04-1.55 2.28-1.55 3.73 0 1.46.53 2.7 1.57 3.73 1.03 1.02 2.27 1.54 3.72 1.54 1.45 0 2.7-.52 3.73-1.55 1.03-1.03 1.54-2.27 1.54-3.72.03-.95-.2-1.83-.66-2.66-.46-.82-1.12-1.46-1.95-1.93-.84-.47-1.74-.7-2.68-.68zm0 8.45c-.55 0-1.06-.15-1.54-.44-.48-.3-.85-.68-1.1-1.17-.26-.5-.37-1.03-.35-1.58 0-.83.3-1.53.87-2.12.58-.58 1.3-.87 2.12-.87.83 0 1.56.3 2.14.87.57.6.87 1.3.87 2.12.03.56-.1 1.08-.34 1.57-.26.5-.63.88-1.12 1.17-.48.3-1 .44-1.56.45zM-930-6.94c-1.46 0-2.7.53-3.74 1.56-1.03 1.03-1.54 2.27-1.54 3.72 0 1.45.53 2.7 1.57 3.72 1.02 1.02 2.26 1.54 3.7 1.54 1.46 0 2.7-.52 3.74-1.55 1.03-1.03 1.54-2.27 1.54-3.72.02-.95-.2-1.84-.7-2.66-.47-.82-1.1-1.47-1.92-1.94-.83-.46-1.73-.7-2.67-.67zm0 8.45c-.56 0-1.1-.15-1.58-.44-.48-.3-.82-.68-1.08-1.17-.25-.5-.4-1.03-.36-1.58 0-.83.32-1.53.9-2.12.57-.58 1.28-.87 2.1-.87.84 0 1.55.3 2.13.87.58.6.88 1.3.88 2.12.02.56-.1 1.08-.35 1.57-.25.5-.62.88-1.1 1.17-.48.3-1 .44-1.54.45zM-915.84-6.62v.86h-.07c-.38-.4-.8-.7-1.28-.9-.48-.2-1-.3-1.52-.28-1.4.06-2.62.6-3.58 1.62-.97 1.02-1.48 2.23-1.48 3.64 0 1.4.5 2.63 1.48 3.65.96 1 2.18 1.55 3.58 1.62.53 0 1.04-.1 1.52-.3.5-.22.92-.52 1.27-.9h.06v.75c0 2-1.08 3.1-2.83 3.1-.58-.03-1.1-.2-1.6-.55-.47-.34-.82-.78-1.02-1.33l-2 .84c.4.96 1.02 1.72 1.87 2.3.85.55 1.8.83 2.83.82 2.7 0 5-1.6 5-5.48v-9.46h-2.22zm-2.67 8.14c-.56 0-1.07-.16-1.53-.45-.46-.3-.83-.68-1.08-1.17-.26-.48-.36-1-.33-1.55-.03-.55.07-1.07.32-1.56.24-.5.6-.9 1.07-1.2.46-.3.97-.44 1.52-.46.54.03 1.02.2 1.48.5.46.3.8.68 1.04 1.17.23.5.34 1 .3 1.55.02.53-.07 1.04-.3 1.52-.23.48-.6.87-1.04 1.16-.43.3-.96.46-1.5.5zm0 0M-912.05-12.2h2.32V3.28h-2.32zM-903.38 1.52c-.55.02-1.05-.1-1.5-.4-.48-.3-.82-.7-1.05-1.2l7.06-2.9-.25-.6c-.32-.98-.9-1.78-1.73-2.4-.82-.6-1.75-.93-2.78-.96-.92 0-1.8.24-2.6.7-.8.5-1.4 1.14-1.84 1.96-.44.8-.62 1.68-.57 2.6-.03.95.2 1.83.66 2.66.46.82 1.1 1.46 1.94 1.93.82.48 1.7.7 2.64.7.87 0 1.73-.2 2.5-.62.8-.4 1.4-1 1.9-1.72l-1.8-1.2c-.28.46-.65.8-1.1 1.07-.47.26-.95.4-1.48.4zm-.18-6.42c.4-.05.8.04 1.17.24.38.2.66.5.84.87l-4.72 2c-.04-.5.05-1 .28-1.48.23-.47.55-.85 1-1.14.43-.3.9-.45 1.44-.48zm0 0M-894.3-3.87c-.02-1.33.28-2.6.95-3.75.67-1.17 1.57-2.08 2.74-2.75 1.16-.66 2.4-.98 3.74-.96 1-.02 1.98.18 2.9.58.92.4 1.7 1 2.36 1.76l-1.28 1.24c-.5-.6-1.1-1.06-1.8-1.38-.7-.32-1.42-.47-2.2-.43-1.02-.03-1.98.22-2.86.73-.87.5-1.56 1.2-2.04 2.1-.5.9-.72 1.86-.67 2.87-.05 1 .2 1.96.7 2.84.47.9 1.14 1.58 2 2.1.9.5 1.83.74 2.84.72.84 0 1.65-.18 2.4-.53.76-.35 1.43-.84 1.98-1.48l1.3 1.27c-1.04 1.16-2.28 1.93-3.8 2.3-1.52.37-3 .28-4.44-.27-1.45-.54-2.65-1.46-3.52-2.73-.88-1.28-1.3-2.7-1.3-4.24zm0 0M-879.78 3.28v-14.3h1.84V3.3zM-866.5-1.6c0 1.38-.5 2.56-1.48 3.54-1 .98-2.18 1.47-3.56 1.47s-2.56-.48-3.55-1.46c-.98-.98-1.46-2.16-1.46-3.55 0-1.4.48-2.58 1.47-3.56 1-.98 2.18-1.47 3.56-1.47s2.57.5 3.56 1.47c1 .98 1.47 2.16 1.47 3.55zm-1.85 0c.07-.74-.1-1.4-.5-2.02-.4-.6-.97-1.04-1.66-1.27-.7-.23-1.4-.23-2.08 0-.7.24-1.24.67-1.63 1.28-.4.6-.6 1.28-.54 2 0 .9.32 1.65.94 2.28.62.62 1.38.94 2.28.94.9 0 1.65-.32 2.27-.94.63-.63.95-1.4.95-2.27zM-858.2 3.28V1.92h-.12c-.34.52-.78.93-1.33 1.22-.56.3-1.15.45-1.77.46-2.54 0-3.73-1.7-3.73-4.1v-6h1.84v5.7c0 1.98.98 2.72 2.4 2.72.76-.07 1.4-.4 1.9-.97.52-.58.73-1.26.68-2.02v-5.4h1.84v9.78h-1.75zM-854.96-1.6c-.07-1.36.37-2.55 1.26-3.56.9-1 2.03-1.56 3.38-1.66.67-.02 1.3.12 1.9.42.6.3 1.07.7 1.44 1.26h.07L-847-6.5V-11h1.84V3.27h-1.77V1.92h-.08c-.37.54-.85.96-1.45 1.26-.6.3-1.22.44-1.9.42-1.34-.1-2.47-.65-3.37-1.67-.9-1-1.33-2.2-1.26-3.54zm8.07 0c.1-.74-.06-1.4-.45-2.03-.4-.62-.92-1.05-1.6-1.3-.7-.23-1.4-.23-2.08 0-.7.25-1.24.68-1.63 1.3-.4.62-.55 1.3-.46 2.02-.1.72.07 1.4.46 2 .4.63.94 1.06 1.63 1.3.7.24 1.38.24 2.07 0 .7-.24 1.22-.67 1.6-1.3.4-.6.56-1.28.47-2zM-840.1 3.28v-14.3h4.87c.78 0 1.52.16 2.2.53.7.38 1.23.9 1.64 1.57.43.67.6 1.4.63 2.17-.02.78-.2 1.5-.62 2.17-.4.68-.93 1.2-1.62 1.57-.7.37-1.43.55-2.2.52h-3.02v5.78h-1.84zm4.9-7.55c.7 0 1.28-.24 1.77-.73.48-.48.73-1.07.73-1.76 0-.7-.25-1.28-.73-1.76-.5-.5-1.1-.73-1.78-.73h-3.13v4.98h3.08zM-829.48 3.28v-14.3h1.84V3.3zM-826.05.32c0-2.2 2-3.4 4.3-3.4.94-.03 1.84.17 2.67.6v-.3c-.05-.57-.25-1.08-.65-1.52-.4-.44-.85-.72-1.42-.84-.58-.12-1.13-.05-1.66.2-.54.26-.93.65-1.18 1.17l-1.68-.72c.46-.87 1.15-1.53 2.05-1.95.88-.42 1.83-.53 2.82-.3 1 .2 1.8.7 2.43 1.47.65.77.97 1.65 1.02 2.65v5.9h-1.75V1.93h-.1c-.34.54-.8.96-1.37 1.26-.58.3-1.2.44-1.84.42-.62.05-1.2-.05-1.76-.33-.58-.28-1.02-.68-1.36-1.2-.35-.54-.53-1.12-.53-1.75zm7-1.25c-.72-.47-1.48-.7-2.33-.64-1.93 0-2.72 1-2.72 1.93.07.5.3.88.7 1.2.38.3.82.4 1.3.36.8 0 1.5-.27 2.08-.83.57-.56.9-1.23.94-2.03zM-814.7.3v-5.12h-1.7V-6.5h1.7v-3h1.85v3h2.4v1.68h-2.4V.16c0 1.1.48 1.6 1.34 1.6.28 0 .54-.04.8-.16l.66 1.58c-.5.2-.97.28-1.48.26-.57.07-1.12-.04-1.65-.3-.53-.28-.92-.67-1.2-1.2-.27-.5-.4-1.05-.32-1.64zM-802.73-10.83l-.62 1.58c-.28-.13-.53-.18-.83-.16-.3-.04-.57.03-.85.17-.27.15-.48.36-.62.63s-.18.56-.16.86v1.24h2.45v1.68h-2.55v8.1h-1.84v-8.1h-1.84V-6.5h1.84v-1.3c-.03-.6.1-1.2.43-1.72.32-.53.75-.94 1.3-1.22.56-.28 1.13-.4 1.75-.35.53-.02 1.04.07 1.52.27zM-792.72-1.6c0 1.38-.5 2.56-1.48 3.54s-2.18 1.47-3.56 1.47-2.58-.48-3.57-1.46c-1-.98-1.47-2.16-1.47-3.55 0-1.4.48-2.58 1.47-3.56 1-.98 2.2-1.47 3.57-1.47 1.38 0 2.58.5 3.56 1.47 1 .98 1.48 2.16 1.48 3.55zm-1.84 0c.06-.74-.12-1.4-.5-2.02-.4-.6-.98-1.04-1.67-1.27-.7-.23-1.38-.23-2.07 0-.7.24-1.26.67-1.65 1.28-.4.6-.58 1.28-.5 2-.08.74.1 1.4.5 2.02.4.6.96 1.03 1.65 1.27.7.24 1.38.24 2.07 0 .7-.24 1.27-.66 1.66-1.27.4-.6.58-1.28.5-2zM-791.25 3.28V-6.5h1.77v1.6h.07c.24-.55.65-1 1.16-1.32.5-.33 1.08-.5 1.68-.52.48-.02.94.06 1.38.24l-.7 1.72c-.34-.1-.66-.16-1-.14-.5.02-.92.16-1.34.42-.4.27-.73.62-.94 1.05-.2.44-.32.9-.27 1.38v5.35zm0 0M-784.2-6.5h1.76v1.36h.1c.33-.5.77-.9 1.3-1.2.53-.3 1.1-.46 1.7-.48.67-.05 1.27.1 1.84.44.58.34 1 .82 1.24 1.44.37-.6.88-1.05 1.48-1.4.6-.32 1.26-.48 1.95-.48 2.4 0 3.5 1.7 3.5 4.1v6h-1.84v-5.7c0-2-.8-2.72-2.2-2.72-1.4 0-2.47 1.5-2.47 3v5.4h-1.84v-5.7c0-2-.78-2.7-2.2-2.7-1.4 0-2.5 1.5-2.5 3v5.4h-1.83V-6.5z" fill="#737373"/><path d="M-980.96 3.3l-2.87 4.97h-7.52c-.35 0-.65-.08-.94-.25-.3-.16-.52-.4-.7-.68l-6.06-10.6c-.16-.3-.25-.6-.25-.94 0-.33.08-.64.24-.93l2.3-4.05 2.86 4.98 4.32 7.5zm0 0" fill="#ffcc40"/><path d="M-971.46-3.27l-6.1 10.6c-.15.3-.38.53-.68.7-.3.16-.6.24-.94.24h-4.65l2.87-4.98 4.33-7.5-4.33-7.48h5.7l3.76 6.56c.16.28.27.6.27.92 0 .33-.07.64-.23.93z" fill="#da4437"/><path d="M-975.27-11.68h-14.3l-4.3 7.48-2.9-4.98 3.78-6.55c.18-.3.4-.52.7-.7.3-.15.6-.24.95-.24h12.17c.34 0 .64.1.94.25.3.17.53.4.7.7z" fill="#4284f3"/><path d="M-980.96-11.68l4.33 7.48-4.33 7.5h-8.62l-4.3-7.5 4.3-7.48z" fill="#dfdfdf"/><path d="M-989-4.2c0-2.06 1.67-3.74 3.74-3.74 2.07 0 3.75 1.68 3.75 3.74 0 2.07-1.7 3.75-3.76 3.75-2.07 0-3.75-1.68-3.75-3.75z" fill="#fff"/><path d="M-993-15.57c.18-.3.4-.52.7-.7.3-.15.6-.24.95-.24h12.17c.34 0 .64.08.94.24.3.17.53.4.7.7l2.26 3.88-2.27-4.05c-.16-.3-.4-.52-.7-.7-.3-.15-.6-.24-.93-.24h-12.17c-.35 0-.65.1-.94.25-.3.17-.52.4-.7.7l-3.76 6.54v.08z" fill="#fff" fill-opacity=".2"/><path d="M-993.88-4.2l4.3-7.48h14.35l-.07-.16h-14.28l-4.3 7.48" fill="#1a237e" fill-opacity=".2"/><path d="M-999.06-4.97l2.3-4 2.88 5 4.3 7.48h8.56l.06-.15h-8.62l-4.3-7.55-2.88-4.98-2.32 4c-.18.3-.25.63-.23.98 0-.27.1-.53.24-.77zm0 0" fill="#fff" fill-opacity=".2"/><path d="M-983.74 8.1h-7.6c-.36 0-.66-.07-.95-.24-.3-.16-.52-.4-.7-.68l-6.06-10.6c-.14-.26-.23-.54-.25-.85-.03.36.06.7.24 1l6.07 10.6c.18.3.4.53.7.7.3.16.6.24.95.24h7.52z" fill="#be360c"/><path d="M-976.54-4.2l-4.32-7.48h-.1l4.33 7.48zM-971.46-3.42l-6.1 10.6c-.15.3-.38.52-.68.68-.3.17-.6.25-.94.25h-4.56l-.1.17h4.66c.34 0 .64-.08.94-.25.3-.16.53-.4.7-.68l6.08-10.6c.2-.3.26-.64.23-1-.02.3-.1.58-.23.84zm0 0" fill="#3e2723"/><path d="M-975.27-11.52l3.77 6.56c.13.26.23.54.25.84.02-.35-.07-.68-.25-1l-3.77-6.56h-5.7l.1.16M-980.96 3.45l4.42-7.65h-.1l-4.32 7.5-2.87 4.97h.1z" fill="#fff"/><path d="M-971.46-5.12l-3.8-6.56-2.3-4.05c-.15-.3-.38-.52-.68-.7-.3-.15-.6-.24-.94-.24h-12.17c-.35 0-.65.1-.94.25-.3.17-.52.4-.7.7l-6.06 10.6c-.16.3-.25.6-.25.93 0 .34.08.65.24.94l6.07 10.6c.18.3.4.52.7.68.3.17.6.25.95.25h12.17c.34 0 .64-.08.94-.25.3-.16.53-.4.7-.68l6.08-10.6c.16-.3.26-.6.26-.93 0-.32-.1-.63-.26-.92z" fill="url(#a)"/><path d="M-1922.85-206.67a6 6 0 0 1 6-6h1438.18a6 6 0 0 1 6 6V634.3a6 6 0 0 1-6 6h-1438.18a6 6 0 0 1-6-6z" stroke="#3a414a" stroke-width="3" fill="#fff"/><path d="M-1809.06-176.56a2 2 0 0 1 2-2h1187.73a2 2 0 0 1 2 2V1.34a2 2 0 0 1-2 2h-1187.73a2 2 0 0 1-2-2z" stroke="#000" stroke-width="2" fill="#f1f8e9"/><path d="M-1366.76-134.6a6 6 0 0 1 6-6h295.12a6 6 0 0 1 6 6v94a6 6 0 0 1-6 6h-295.12a6 6 0 0 1-6-6z" fill="none"/><use xlink:href="#b" transform="matrix(1,0,0,1,-1361.7583333333332,-135.61121429340008) translate(0 64.5)"/><path d="M-1809.06 146.9a2 2 0 0 1 2-2h1187.73a2 2 0 0 1 2 2v157.54a2 2 0 0 1-2 2h-1187.73a2 2 0 0 1-2-2z" fill="#e1f5fe"/><path d="M-1767.47 144.9h39.6m19.78 0h39.6m19.8 0h39.6m19.8 0h39.58m19.8 0h39.6m19.78 0h39.6m19.8 0h39.58m19.8 0h39.6m19.78 0h39.6m19.8 0h39.58m19.8 0h39.58m19.8 0h39.6m19.8 0h39.58m19.8 0h39.58m19.8 0h39.6m19.8 0h39.58m19.8 0h39.58m19.8 0h39.6m19.78 0h39.6m19.8 0h19.8l.3.03.3.07.3.12.26.17.24.2.2.23.17.27.12.3.07.3.03.3v17.5m0 17.5v35.02m0 17.5v35m0 17.52v17.5l-.03.3-.07.32-.12.3-.17.26-.2.23-.24.2-.26.17-.3.12-.3.08-.3.02h-19.8m-19.8 0h-39.6m-19.8 0h-39.58m-19.8 0h-39.6m-19.78 0h-39.6m-19.8 0h-39.58m-19.8 0h-39.6m-19.78 0h-39.6m-19.8 0h-39.58m-19.8 0h-39.6m-19.78 0h-39.6m-19.8 0h-39.58m-19.8 0h-39.6m-19.78 0h-39.6m-19.8 0h-39.58m-19.8 0h-39.6m-19.78 0h-39.6m-19.8 0h-39.58m-19.8 0h-39.6m-19.78 0h-39.6m-19.8 0h-19.78l-.32-.02-.3-.08-.3-.12-.26-.16-.24-.2-.2-.24-.16-.27-.12-.3-.08-.3-.02-.3v-17.5m0-17.52v-35m0-17.5V181.9m0-17.5v-17.5l.02-.3.08-.3.12-.3.16-.27.2-.24.24-.2.27-.18.3-.12.3-.07.3-.03h19.8" stroke="#000" stroke-width="2" fill="none"/><path d="M-1318.98 180.77a6 6 0 0 1 6-6h202a6 6 0 0 1 6 6v94a6 6 0 0 1-6 6h-202a6 6 0 0 1-6-6z" fill="none"/><use xlink:href="#c" transform="matrix(1,0,0,1,-1313.981906847128,179.76971060504266) translate(0 64.5)"/><path d="M-1833.33 454a6 6 0 0 1 6-6h149.77a6 6 0 0 1 6 6v109.33a6 6 0 0 1-6 6h-149.77a6 6 0 0 1-6-6z" stroke="#3a414a" stroke-width="3" fill="#f2f3f5"/><use xlink:href="#d" transform="matrix(1,0,0,1,-1825.2444444444445,454.06666666666666) translate(32.59166666666667 58.6125)"/><path d="M-1613.56 454a6 6 0 0 1 6-6h149.78a6 6 0 0 1 6 6v109.33a6 6 0 0 1-6 6h-149.78a6 6 0 0 1-6-6z" stroke="#3a414a" stroke-width="3" fill="#f2f3f5"/><use xlink:href="#e" transform="matrix(1,0,0,1,-1605.4666666666667,454.06666666666655) translate(31.614197530864196 43.61805555555556)"/><use xlink:href="#f" transform="matrix(1,0,0,1,-1605.4666666666667,454.06666666666655) translate(1.7716049382715937 72.95138888888889)"/><path d="M-1393.78 454a6 6 0 0 1 6-6H-1238a6 6 0 0 1 6 6v109.33a6 6 0 0 1-6 6h-149.78a6 6 0 0 1-6-6z" stroke="#3a414a" stroke-width="3" fill="#f2f3f5"/><use xlink:href="#g" transform="matrix(1,0,0,1,-1385.6888888888889,454.06666666666666) translate(12.477777777777781 58.6125)"/><path d="M-1174 454a6 6 0 0 1 6-6h149.78a6 6 0 0 1 6 6v109.33a6 6 0 0 1-6 6H-1168a6 6 0 0 1-6-6z" stroke="#3a414a" stroke-width="3" fill="#f2f3f5"/><use xlink:href="#h" transform="matrix(1,0,0,1,-1165.9111111111113,454.06666666666666) translate(26.81388888888889 58.6125)"/><path d="M-954.22 454a6 6 0 0 1 6-6h149.78a6 6 0 0 1 6 6v109.33a6 6 0 0 1-6 6h-149.78a6 6 0 0 1-6-6z" stroke="#3a414a" stroke-width="3" fill="#f2f3f5"/><use xlink:href="#i" transform="matrix(1,0,0,1,-946.1333333333333,454.06666666666655) translate(31.111111111111114 44.8625)"/><use xlink:href="#j" transform="matrix(1,0,0,1,-946.1333333333333,454.06666666666655) translate(31.219444444444456 76.0625)"/><path d="M-734.44 454a6 6 0 0 1 6-6h149.77a6 6 0 0 1 6 6v109.33a6 6 0 0 1-6 6h-149.77a6 6 0 0 1-6-6z" stroke="#3a414a" stroke-width="3" fill="#f2f3f5"/><use xlink:href="#k" transform="matrix(1,0,0,1,-726.3555555555555,454.0666666666666) translate(23.238888888888894 58.6125)"/><path d="M-1532.63 445v-.64l.14-2.07.22-2 .28-1.94.37-1.9.43-1.86.5-1.83.6-1.8.67-1.8.76-1.8.84-1.8.95-1.82 1.06-1.83 1.18-1.86 1.32-1.9 1.5-1.96 1.66-2.02 1.9-2.1 2.17-2.22 2.5-2.35 2.93-2.5 3.47-2.76 4.23-3.06 5.34-3.54 7.23-4.37 11.83-6.47 42.7-22.13 7.23-4.37 5.34-3.54 4.22-3.06 3.47-2.75 2.9-2.52 2.52-2.35 2.16-2.2 1.9-2.12 1.68-2.02 1.48-1.95 1.33-1.92 1.18-1.86 1.06-1.83.95-1.82.85-1.8.75-1.8.1-.24" stroke="#3a414a" stroke-width="3" stroke-linejoin="round" fill="none"/><path d="M-1531.16 445l-.03 1.5h-2.94l.03-1.57z" stroke="#3a414a" stroke-width=".05" fill="#3a414a"/><path d="M-1394.15 310.4l5.02 14.12-14.75-2.7z" stroke="#3a414a" stroke-width="3" fill="#3a414a"/><path d="M-1312.86 445l.04-2.05.2-3.32.34-3.14.44-3 .55-2.86.65-2.75.75-2.68.85-2.6.94-2.56 1.05-2.52 1.18-2.5 1.3-2.5 1.48-2.55 1.65-2.6 1.86-2.66 2.14-2.8 2.47-3 2.98-3.3 3.74-3.8 5.28-4.95 28.4-24.8 3.73-3.8 2.97-3.3 2.48-3 2.12-2.8 1.86-2.67 1.64-2.58 1.47-2.54 1.3-2.5 1.2-2.5 1.05-2.52.95-2.56.84-2.6.76-2.66.3-1.28" stroke="#3a414a" stroke-width="3" stroke-linejoin="round" fill="none"/><path d="M-1311.38 445l-.03 1.5h-2.96l.03-1.57z" stroke="#3a414a" stroke-width=".05" fill="#3a414a"/><path d="M-1230.33 310.42l6 13.75-14.9-1.68z" stroke="#3a414a" stroke-width="3" fill="#3a414a"/><path d="M-1093.14 445l-.04-1.68-.18-3-.3-2.84-.4-2.73-.5-2.62-.6-2.54-.7-2.48-.77-2.4-.9-2.38-.97-2.35-1.1-2.34-1.22-2.34-1.37-2.36-1.5-2.4-1.72-2.45-1.93-2.54-2.22-2.68-2.58-2.86-3.08-3.15-3.83-3.6-5.2-4.45-9.5-7.5-21.1-16.2-5.2-4.46-3.82-3.6-3.08-3.14-2.58-2.86-2.22-2.68-1.93-2.55-1.7-2.45-1.52-2.4-1.37-2.36-1.2-2.34-1.1-2.33-1-2.35-.88-2.37-.78-2.4-.58-2.08" stroke="#3a414a" stroke-width="3" stroke-linejoin="round" fill="none"/><path d="M-1091.64 446.5h-2.95l-.02-1.5 2.95-.07z" stroke="#3a414a" stroke-width=".05" fill="#3a414a"/><path d="M-1185.63 310.42l9.05 11.96-14.88 1.86z" stroke="#3a414a" stroke-width="3" fill="#3a414a"/><path d="M-873.37 445v-.88l-.16-2.3-.23-2.2-.3-2.13-.4-2.08-.48-2.03-.56-2-.64-1.96-.72-1.95-.82-1.94-.9-1.94-1.02-1.94-1.14-1.97-1.26-1.98-1.42-2.04-1.6-2.1-1.78-2.16-2.04-2.26-2.34-2.4-2.7-2.53-3.22-2.77-3.87-3.06-4.88-3.54-6.6-4.37-11-6.64-35.44-20.4-6.58-4.38-4.88-3.54-3.88-3.06-3.2-2.77-2.7-2.53-2.35-2.4-2.03-2.25-1.8-2.17-1.58-2.1-1.43-2.03-1.26-2-1.13-1.96-1.02-1.94-.9-1.94-.82-1.93-.68-1.84" stroke="#3a414a" stroke-width="3" stroke-linejoin="round" fill="none"/><path d="M-871.86 446.5h-2.95l-.04-1.5 2.95-.07z" stroke="#3a414a" stroke-width=".05" fill="#3a414a"/><path d="M-997.5 310.4l9.5 11.6-14.78 2.44z" stroke="#3a414a" stroke-width="3" fill="#3a414a"/><path d="M-653.6 445v-.5l-.12-1.95-.2-1.88-.27-1.84-.33-1.8-.4-1.75-.5-1.74-.56-1.73-.63-1.7-.72-1.72-.8-1.72-.92-1.73-1-1.76-1.15-1.8-1.27-1.8-1.4-1.9-1.62-1.94-1.82-2.02-2.08-2.1-2.4-2.25-2.78-2.4-3.28-2.6-3.96-2.87-4.9-3.25-6.36-3.85-9.08-4.98-20.3-9.95-30.9-14.9-9.08-5-6.36-3.84-4.9-3.24-3.95-2.87-3.3-2.6-2.77-2.4-2.4-2.25-2.07-2.12-1.83-2.02-1.6-1.94-1.44-1.88-1.27-1.82-1.13-1.8-1.02-1.75-.9-1.72-.8-1.72-.45-1.07" stroke="#3a414a" stroke-width="3" stroke-linejoin="round" fill="none"/><path d="M-652.08 446.5h-2.95l-.03-1.5 2.95-.07z" stroke="#3a414a" stroke-width=".05" fill="#3a414a"/><path d="M-801.42 310.38l9.86 11.3-14.72 2.9z" stroke="#3a414a" stroke-width="3" fill="#3a414a"/><path d="M-1213.2 142.4V21.84" stroke="#3a414a" stroke-width="3" stroke-linejoin="round" fill="none"/><path d="M-1211.72 143.9h-2.95v-1.53h2.95z" stroke="#3a414a" stroke-width=".05" fill="#3a414a"/><path d="M-1213.2 7.34l7.5 13h-15z" stroke="#3a414a" stroke-width="3" fill="#3a414a"/><path d="M-1312.34 582.33a6 6 0 0 1 6-6h217.16a6 6 0 0 1 6 6v47.9a6 6 0 0 1-6 6h-217.16a6 6 0 0 1-6-6z" fill="none"/><use xlink:href="#l" transform="matrix(1,0,0,1,-1307.3408773377337,581.3333333333334) translate(0 30.2)"/><use xlink:href="#m" transform="matrix(1,0,0,1,-1307.3408773377337,581.3333333333334) translate(134.11666666666665 30.2)"/><path d="M-1312.34 259.5a6 6 0 0 1 6-6h195.37a6 6 0 0 1 6 6v40.94a6 6 0 0 1-6 6h-195.37a6 6 0 0 1-6-6z" fill="none"/><use xlink:href="#n" transform="matrix(1,0,0,1,-1307.3408773377334,258.5055610561056) translate(0 26.7)"/><use xlink:href="#m" transform="matrix(1,0,0,1,-1307.3408773377334,258.5055610561056) translate(129.85555555555555 26.7)"/><path d="M-1752.4 445v-.24l.1-1.7.17-1.64.24-1.6.3-1.6.38-1.56.43-1.55.5-1.53.58-1.53.65-1.55.73-1.56.82-1.57.92-1.6 1.04-1.62 1.15-1.66 1.3-1.73 1.46-1.77 1.67-1.85 1.9-1.94 2.17-2.03 2.53-2.17 2.95-2.34 3.5-2.55 4.25-2.8 5.28-3.2 6.85-3.74 9.57-4.74 16.86-7.45 52-21.85 9.56-4.74 6.84-3.75 5.28-3.2 4.24-2.8 3.5-2.55 2.96-2.34 2.52-2.17 2.18-2.04 1.9-1.94 1.66-1.86 1.47-1.77 1.3-1.72 1.15-1.66 1.03-1.64.92-1.6.83-1.56.3-.64" stroke="#3a414a" stroke-width="3" stroke-linejoin="round" fill="none"/><path d="M-1750.94 445l-.03 1.5h-2.95l.03-1.57z" stroke="#3a414a" stroke-width=".05" fill="#3a414a"/><path d="M-1581.33 310.37l4.47 14.32-14.63-3.3z" stroke="#3a414a" stroke-width="3" fill="#3a414a"/><defs><radialGradient gradientUnits="userSpaceOnUse" id="a" fx="-38218.53" fy="107139.33" cx="36507.87" cy="-106804.67" r="4328"><stop offset="0%" stop-color="#fff" stop-opacity=".1"/><stop offset="100%" stop-color="#fff" stop-opacity="0"/></radialGradient><path d="M30-248c87 1 191-15 191 75 0 78-77 80-158 76V0H30v-248zm33 125c57 0 124 11 124-50 0-59-68-47-124-48v98" id="o"/><path d="M24 0v-261h32V0H24" id="p"/><path d="M141-36C126-15 110 5 73 4 37 3 15-17 15-53c-1-64 63-63 125-63 3-35-9-54-41-54-24 1-41 7-42 31l-33-3c5-37 33-52 76-52 45 0 72 20 72 64v82c-1 20 7 32 28 27v20c-31 9-61-2-59-35zM48-53c0 20 12 33 32 33 41-3 63-29 60-74-43 2-92-5-92 41" id="q"/><path d="M59-47c-2 24 18 29 38 22v24C64 9 27 4 27-40v-127H5v-23h24l9-43h21v43h35v23H59v120" id="r"/><path d="M101-234c-31-9-42 10-38 44h38v23H63V0H32v-167H5v-23h27c-7-52 17-82 69-68v24" id="s"/><path d="M100-194c62-1 85 37 85 99 1 63-27 99-86 99S16-35 15-95c0-66 28-99 85-99zM99-20c44 1 53-31 53-75 0-43-8-75-51-75s-53 32-53 75 10 74 51 75" id="t"/><path d="M114-163C36-179 61-72 57 0H25l-1-190h30c1 12-1 29 2 39 6-27 23-49 58-41v29" id="u"/><path d="M210-169c-67 3-38 105-44 169h-31v-121c0-29-5-50-35-48C34-165 62-65 56 0H25l-1-190h30c1 10-1 24 2 32 10-44 99-50 107 0 11-21 27-35 58-36 85-2 47 119 55 194h-31v-121c0-29-5-49-35-48" id="v"/><g id="b"><use transform="matrix(0.2222222222222222,0,0,0.2222222222222222,0,0)" xlink:href="#o"/><use transform="matrix(0.2222222222222222,0,0,0.2222222222222222,53.33333333333333,0)" xlink:href="#p"/><use transform="matrix(0.2222222222222222,0,0,0.2222222222222222,70.88888888888889,0)" xlink:href="#q"/><use transform="matrix(0.2222222222222222,0,0,0.2222222222222222,115.33333333333333,0)" xlink:href="#r"/><use transform="matrix(0.2222222222222222,0,0,0.2222222222222222,137.55555555555554,0)" xlink:href="#s"/><use transform="matrix(0.2222222222222222,0,0,0.2222222222222222,159.77777777777777,0)" xlink:href="#t"/><use transform="matrix(0.2222222222222222,0,0,0.2222222222222222,204.22222222222223,0)" xlink:href="#u"/><use transform="matrix(0.2222222222222222,0,0,0.2222222222222222,230.6666666666667,0)" xlink:href="#v"/></g><path d="M197 0v-115H63V0H30v-248h33v105h134v-105h34V0h-34" id="w"/><path d="M135-143c-3-34-86-38-87 0 15 53 115 12 119 90S17 21 10-45l28-5c4 36 97 45 98 0-10-56-113-15-118-90-4-57 82-63 122-42 12 7 21 19 24 35" id="x"/><g id="c"><use transform="matrix(0.2222222222222222,0,0,0.2222222222222222,0,0)" xlink:href="#w"/><use transform="matrix(0.2222222222222222,0,0,0.2222222222222222,57.55555555555555,0)" xlink:href="#t"/><use transform="matrix(0.2222222222222222,0,0,0.2222222222222222,102,0)" xlink:href="#p"/><use transform="matrix(0.2222222222222222,0,0,0.2222222222222222,119.55555555555554,0)" xlink:href="#t"/><use transform="matrix(0.2222222222222222,0,0,0.2222222222222222,164,0)" xlink:href="#x"/></g><path d="M143 4C61 4 22-44 18-125c-5-107 100-154 193-111 17 8 29 25 37 43l-32 9c-13-25-37-40-76-40-61 0-88 39-88 99 0 61 29 100 91 101 35 0 62-11 79-27v-45h-74v-28h105v86C228-13 192 4 143 4" id="y"/><path d="M24-231v-30h32v30H24zM24 0v-190h32V0H24" id="z"/><path d="M140-251c81 0 123 46 123 126C263-46 219 4 140 4 59 4 17-45 17-125s42-126 123-126zm0 227c63 0 89-41 89-101s-29-99-89-99c-61 0-89 39-89 99S79-25 140-24" id="A"/><path d="M115-194c55 1 70 41 70 98S169 2 115 4C84 4 66-9 55-30l1 105H24l-1-265h31l2 30c10-21 28-34 59-34zm-8 174c40 0 45-34 45-75s-6-73-45-74c-42 0-51 32-51 76 0 43 10 73 51 73" id="B"/><g id="d"><use transform="matrix(0.07222222222222222,0,0,0.07222222222222222,0,0)" xlink:href="#y"/><use transform="matrix(0.07222222222222222,0,0,0.07222222222222222,20.22222222222222,0)" xlink:href="#z"/><use transform="matrix(0.07222222222222222,0,0,0.07222222222222222,25.927777777777774,0)" xlink:href="#r"/><use transform="matrix(0.07222222222222222,0,0,0.07222222222222222,33.15,0)" xlink:href="#A"/><use transform="matrix(0.07222222222222222,0,0,0.07222222222222222,53.37222222222222,0)" xlink:href="#B"/><use transform="matrix(0.07222222222222222,0,0,0.07222222222222222,67.81666666666666,0)" xlink:href="#x"/></g><path d="M185-189c-5-48-123-54-124 2 14 75 158 14 163 119 3 78-121 87-175 55-17-10-28-26-33-46l33-7c5 56 141 63 141-1 0-78-155-14-162-118-5-82 145-84 179-34 5 7 8 16 11 25" id="C"/><path d="M100-194c63 0 86 42 84 106H49c0 40 14 67 53 68 26 1 43-12 49-29l28 8c-11 28-37 45-77 45C44 4 14-33 15-96c1-61 26-98 85-98zm52 81c6-60-76-77-97-28-3 7-6 17-6 28h103" id="D"/><path d="M96-169c-40 0-48 33-48 73s9 75 48 75c24 0 41-14 43-38l32 2c-6 37-31 61-74 61-59 0-76-41-82-99-10-93 101-131 147-64 4 7 5 14 7 22l-32 3c-4-21-16-35-41-35" id="E"/><g id="e"><use transform="matrix(0.06790123456790124,0,0,0.06790123456790124,0,0)" xlink:href="#C"/><use transform="matrix(0.06790123456790124,0,0,0.06790123456790124,16.296296296296298,0)" xlink:href="#D"/><use transform="matrix(0.06790123456790124,0,0,0.06790123456790124,29.876543209876544,0)" xlink:href="#E"/><use transform="matrix(0.06790123456790124,0,0,0.06790123456790124,42.098765432098766,0)" xlink:href="#u"/><use transform="matrix(0.06790123456790124,0,0,0.06790123456790124,50.17901234567901,0)" xlink:href="#D"/><use transform="matrix(0.06790123456790124,0,0,0.06790123456790124,63.75925925925926,0)" xlink:href="#r"/><use transform="matrix(0.06790123456790124,0,0,0.06790123456790124,70.54938271604938,0)" xlink:href="#x"/></g><path d="M240 0l2-218c-23 76-54 145-80 218h-23L58-218 59 0H30v-248h44l77 211c21-75 51-140 76-211h43V0h-30" id="F"/><path d="M117-194c89-4 53 116 60 194h-32v-121c0-31-8-49-39-48C34-167 62-67 57 0H25l-1-190h30c1 10-1 24 2 32 11-22 29-35 61-36" id="G"/><path d="M177-190C167-65 218 103 67 71c-23-6-38-20-44-43l32-5c15 47 100 32 89-28v-30C133-14 115 1 83 1 29 1 15-40 15-95c0-56 16-97 71-98 29-1 48 16 59 35 1-10 0-23 2-32h30zM94-22c36 0 50-32 50-73 0-42-14-75-50-75-39 0-46 34-46 75s6 73 46 73" id="H"/><g id="f"><use transform="matrix(0.06790123456790124,0,0,0.06790123456790124,0,0)" xlink:href="#F"/><use transform="matrix(0.06790123456790124,0,0,0.06790123456790124,20.302469135802472,0)" xlink:href="#q"/><use transform="matrix(0.06790123456790124,0,0,0.06790123456790124,33.88271604938272,0)" xlink:href="#G"/><use transform="matrix(0.06790123456790124,0,0,0.06790123456790124,47.46296296296297,0)" xlink:href="#q"/><use transform="matrix(0.06790123456790124,0,0,0.06790123456790124,61.043209876543216,0)" xlink:href="#H"/><use transform="matrix(0.06790123456790124,0,0,0.06790123456790124,74.62345679012347,0)" xlink:href="#D"/><use transform="matrix(0.06790123456790124,0,0,0.06790123456790124,88.20370370370372,0)" xlink:href="#v"/><use transform="matrix(0.06790123456790124,0,0,0.06790123456790124,108.50617283950619,0)" xlink:href="#D"/><use transform="matrix(0.06790123456790124,0,0,0.06790123456790124,122.08641975308646,0)" xlink:href="#G"/><use transform="matrix(0.06790123456790124,0,0,0.06790123456790124,135.66666666666669,0)" xlink:href="#r"/></g><g id="g"><use transform="matrix(0.07222222222222222,0,0,0.07222222222222222,0,0)" xlink:href="#F"/><use transform="matrix(0.07222222222222222,0,0,0.07222222222222222,21.59444444444444,0)" xlink:href="#t"/><use transform="matrix(0.07222222222222222,0,0,0.07222222222222222,36.038888888888884,0)" xlink:href="#G"/><use transform="matrix(0.07222222222222222,0,0,0.07222222222222222,50.48333333333333,0)" xlink:href="#z"/><use transform="matrix(0.07222222222222222,0,0,0.07222222222222222,56.18888888888888,0)" xlink:href="#r"/><use transform="matrix(0.07222222222222222,0,0,0.07222222222222222,63.411111111111104,0)" xlink:href="#t"/><use transform="matrix(0.07222222222222222,0,0,0.07222222222222222,77.85555555555555,0)" xlink:href="#u"/><use transform="matrix(0.07222222222222222,0,0,0.07222222222222222,86.45,0)" xlink:href="#z"/><use transform="matrix(0.07222222222222222,0,0,0.07222222222222222,92.15555555555555,0)" xlink:href="#G"/><use transform="matrix(0.07222222222222222,0,0,0.07222222222222222,106.6,0)" xlink:href="#H"/></g><path d="M30 0v-248h33v221h125V0H30" id="I"/><g id="h"><use transform="matrix(0.07222222222222222,0,0,0.07222222222222222,0,0)" xlink:href="#I"/><use transform="matrix(0.07222222222222222,0,0,0.07222222222222222,14.444444444444443,0)" xlink:href="#t"/><use transform="matrix(0.07222222222222222,0,0,0.07222222222222222,28.888888888888886,0)" xlink:href="#H"/><use transform="matrix(0.07222222222222222,0,0,0.07222222222222222,43.33333333333333,0)" xlink:href="#H"/><use transform="matrix(0.07222222222222222,0,0,0.07222222222222222,57.77777777777777,0)" xlink:href="#z"/><use transform="matrix(0.07222222222222222,0,0,0.07222222222222222,63.48333333333333,0)" xlink:href="#G"/><use transform="matrix(0.07222222222222222,0,0,0.07222222222222222,77.92777777777778,0)" xlink:href="#H"/></g><path d="M205 0l-28-72H64L36 0H1l101-248h38L239 0h-34zm-38-99l-47-123c-12 45-31 82-46 123h93" id="J"/><g id="i"><use transform="matrix(0.07222222222222222,0,0,0.07222222222222222,0,0)" xlink:href="#J"/><use transform="matrix(0.07222222222222222,0,0,0.07222222222222222,17.333333333333332,0)" xlink:href="#E"/><use transform="matrix(0.07222222222222222,0,0,0.07222222222222222,30.333333333333332,0)" xlink:href="#E"/><use transform="matrix(0.07222222222222222,0,0,0.07222222222222222,43.33333333333333,0)" xlink:href="#D"/><use transform="matrix(0.07222222222222222,0,0,0.07222222222222222,57.77777777777777,0)" xlink:href="#x"/><use transform="matrix(0.07222222222222222,0,0,0.07222222222222222,70.77777777777777,0)" xlink:href="#x"/></g><path d="M212-179c-10-28-35-45-73-45-59 0-87 40-87 99 0 60 29 101 89 101 43 0 62-24 78-52l27 14C228-24 195 4 139 4 59 4 22-46 18-125c-6-104 99-153 187-111 19 9 31 26 39 46" id="K"/><g id="j"><use transform="matrix(0.07222222222222222,0,0,0.07222222222222222,0,0)" xlink:href="#K"/><use transform="matrix(0.07222222222222222,0,0,0.07222222222222222,18.705555555555552,0)" xlink:href="#t"/><use transform="matrix(0.07222222222222222,0,0,0.07222222222222222,33.14999999999999,0)" xlink:href="#G"/><use transform="matrix(0.07222222222222222,0,0,0.07222222222222222,47.594444444444434,0)" xlink:href="#r"/><use transform="matrix(0.07222222222222222,0,0,0.07222222222222222,54.816666666666656,0)" xlink:href="#u"/><use transform="matrix(0.07222222222222222,0,0,0.07222222222222222,63.4111111111111,0)" xlink:href="#t"/><use transform="matrix(0.07222222222222222,0,0,0.07222222222222222,77.85555555555555,0)" xlink:href="#p"/></g><path d="M108 0H70L1-190h34L89-25l56-165h34" id="L"/><g id="k"><use transform="matrix(0.07222222222222222,0,0,0.07222222222222222,0,0)" xlink:href="#C"/><use transform="matrix(0.07222222222222222,0,0,0.07222222222222222,17.333333333333332,0)" xlink:href="#D"/><use transform="matrix(0.07222222222222222,0,0,0.07222222222222222,31.777777777777775,0)" xlink:href="#u"/><use transform="matrix(0.07222222222222222,0,0,0.07222222222222222,40.37222222222222,0)" xlink:href="#L"/><use transform="matrix(0.07222222222222222,0,0,0.07222222222222222,53.37222222222222,0)" xlink:href="#z"/><use transform="matrix(0.07222222222222222,0,0,0.07222222222222222,59.077777777777776,0)" xlink:href="#E"/><use transform="matrix(0.07222222222222222,0,0,0.07222222222222222,72.07777777777777,0)" xlink:href="#D"/><use transform="matrix(0.07222222222222222,0,0,0.07222222222222222,86.52222222222221,0)" xlink:href="#x"/></g><path d="M187 0l-14-72H61L19 0h-37l149-248h38L221 0h-34zm-19-99l-22-123L76-99h92" id="M"/><path d="M67-162c32-53 139-36 121 50C175-51 163 2 97 4 68 4 52-11 42-31 38 6 28 39 22 75H-9l50-265h29c-1 10 0 20-3 28zm89 36c0-26-10-43-35-43-54 0-67 50-69 103-1 29 14 45 42 46 53 0 62-58 62-106" id="N"/><path d="M6 0l50-261h32L37 0H6" id="O"/><path d="M50-231l6-30h32l-6 30H50zM6 0l37-190h31L37 0H6" id="P"/><path d="M44-68c0 29 11 47 38 47 30 0 42-19 51-41l28 9C148-21 126 4 82 4 31 4 10-29 12-85c3-77 74-140 146-93 12 8 15 23 18 40l-31 5c-1-22-13-36-36-36-52 0-65 49-65 101" id="Q"/><path d="M165-48c-4 18 1 34 23 27l-3 20c-29 8-62 0-52-35h-2C116-14 99 4 63 4 30 4 8-16 8-49c0-68 71-67 138-67 10-26 0-56-31-54-26 1-42 9-47 31l-32-5c8-67 160-71 144 15-5 28-9 54-15 81zM42-50c3 52 80 24 89-6 7-12 7-24 11-38-47 1-103-4-100 44" id="R"/><path d="M51-54c-9 22 5 41 31 30L79-1C43 14 10-4 19-52l22-115H19l5-23h22l19-43h21l-9 43h35l-4 23H73" id="S"/><path d="M30-147c31-64 166-65 159 27C183-49 158 1 86 4 9 8 1-88 30-147zM88-20c53 0 68-48 68-100 0-31-11-51-44-50-52 1-68 46-68 97 0 32 13 53 44 53" id="T"/><path d="M67-158c22-48 132-52 116 29L158 0h-32l25-140c3-38-53-32-70-12C52-117 51-52 38 0H6l36-190h30" id="U"/><g id="l"><use transform="matrix(0.07222222222222222,0,0,0.07222222222222222,0,0)" xlink:href="#M"/><use transform="matrix(0.07222222222222222,0,0,0.07222222222222222,17.333333333333332,0)" xlink:href="#N"/><use transform="matrix(0.07222222222222222,0,0,0.07222222222222222,31.777777777777775,0)" xlink:href="#N"/><use transform="matrix(0.07222222222222222,0,0,0.07222222222222222,46.222222222222214,0)" xlink:href="#O"/><use transform="matrix(0.07222222222222222,0,0,0.07222222222222222,51.92777777777777,0)" xlink:href="#P"/><use transform="matrix(0.07222222222222222,0,0,0.07222222222222222,57.633333333333326,0)" xlink:href="#Q"/><use transform="matrix(0.07222222222222222,0,0,0.07222222222222222,70.63333333333333,0)" xlink:href="#R"/><use transform="matrix(0.07222222222222222,0,0,0.07222222222222222,85.07777777777777,0)" xlink:href="#S"/><use transform="matrix(0.07222222222222222,0,0,0.07222222222222222,92.29999999999997,0)" xlink:href="#P"/><use transform="matrix(0.07222222222222222,0,0,0.07222222222222222,98.00555555555553,0)" xlink:href="#T"/><use transform="matrix(0.07222222222222222,0,0,0.07222222222222222,112.44999999999997,0)" xlink:href="#U"/></g><path d="M11 0l48-248h34L50-27h125l-5 27H11" id="V"/><path d="M198-190L69 30C53 58 25 83-20 72c4-11-1-27 19-22 33-1 43-29 59-52L20-190h32L79-34l84-156h35" id="W"/><path d="M111-194c62-3 86 47 72 106H45c-7 38 6 69 45 68 27-1 43-14 53-32l24 11C152-15 129 4 87 4 38 3 12-23 12-71c0-70 32-119 99-123zm44 81c14-66-71-72-95-28-4 8-8 17-11 28h106" id="X"/><path d="M66-151c12-25 30-51 66-40l-6 26C45-176 58-65 38 0H6l36-190h30" id="Y"/><g id="m"><use transform="matrix(0.07222222222222222,0,0,0.07222222222222222,0,0)" xlink:href="#V"/><use transform="matrix(0.07222222222222222,0,0,0.07222222222222222,14.444444444444443,0)" xlink:href="#R"/><use transform="matrix(0.07222222222222222,0,0,0.07222222222222222,28.888888888888886,0)" xlink:href="#W"/><use transform="matrix(0.07222222222222222,0,0,0.07222222222222222,41.888888888888886,0)" xlink:href="#X"/><use transform="matrix(0.07222222222222222,0,0,0.07222222222222222,56.33333333333333,0)" xlink:href="#Y"/></g><path d="M14 0l48-248h34L48 0H14" id="Z"/><path d="M103-194c29 0 47 14 56 36 2-11 5-23 8-32h30L160-5C157 61 82 97 21 62 9 55 4 45 1 30l28-7c7 42 83 31 92-3 4-16 9-38 13-55-13 20-29 36-62 36-40 0-60-25-60-64 0-71 23-131 91-131zm4 24c-53 0-58 54-61 104-2 27 10 44 36 44 49 0 65-50 67-102 1-29-15-46-42-46" id="aa"/><g id="n"><use transform="matrix(0.07222222222222222,0,0,0.07222222222222222,0,0)" xlink:href="#Z"/><use transform="matrix(0.07222222222222222,0,0,0.07222222222222222,7.222222222222221,0)" xlink:href="#U"/><use transform="matrix(0.07222222222222222,0,0,0.07222222222222222,21.666666666666664,0)" xlink:href="#S"/><use transform="matrix(0.07222222222222222,0,0,0.07222222222222222,28.888888888888886,0)" xlink:href="#X"/><use transform="matrix(0.07222222222222222,0,0,0.07222222222222222,43.33333333333333,0)" xlink:href="#aa"/><use transform="matrix(0.07222222222222222,0,0,0.07222222222222222,57.77777777777777,0)" xlink:href="#Y"/><use transform="matrix(0.07222222222222222,0,0,0.07222222222222222,66.37222222222222,0)" xlink:href="#R"/><use transform="matrix(0.07222222222222222,0,0,0.07222222222222222,80.81666666666666,0)" xlink:href="#S"/><use transform="matrix(0.07222222222222222,0,0,0.07222222222222222,88.03888888888889,0)" xlink:href="#P"/><use transform="matrix(0.07222222222222222,0,0,0.07222222222222222,93.74444444444444,0)" xlink:href="#T"/><use transform="matrix(0.07222222222222222,0,0,0.07222222222222222,108.18888888888888,0)" xlink:href="#U"/></g></defs></g></svg>