<?xml version="1.0" encoding="UTF-8" standalone="no"?>
<!DOCTYPE svg PUBLIC "-//W3C//DTD SVG 1.1//EN" "http://www.w3.org/Graphics/SVG/1.1/DTD/svg11.dtd">
<!-- Created with Vectornator (http://vectornator.io/) -->
<svg style="fill-rule:nonzero;clip-rule:evenodd;stroke-linecap:round;stroke-linejoin:round;" version="1.1" viewBox="0 0 605.044 336.948" xmlns="http://www.w3.org/2000/svg" xmlns:vectornator="http://vectornator.io" xmlns:xlink="http://www.w3.org/1999/xlink">
<defs/>
<g id="Logo" vectornator:layerName="Logo">
<g opacity="1">
<path d="M591.109 167.89C580.229 111.687 546.936 77.6261 491.282 65.5687C433.469 53.0447 384.362 69.3554 342.802 110.398C310.616 142.185 278.709 174.259 246.482 205.995C225.922 226.226 205.922 247.343 179.109 259.626C149.202 273.334 119.469 272.37 93.4157 251.847C66.8557 230.91 61.2157 201.791 69.349 169.809C81.5757 121.787 138.509 102.695 182.402 131.721C187.656 135.193 192.829 138.787 198.149 142.406C200.682 140.009 202.496 138.35 204.242 136.622C224.509 116.598 244.109 95.8634 265.162 76.7034C293.082 51.2821 325.909 36.9234 364.469 39.9821C377.656 41.0274 390.656 44.4154 406.242 47.1781C374.122 16.6794 338.802 2.73806 296.776 9.35939C257.362 15.5701 226.149 36.7381 199.789 65.6101C193.602 72.3927 188.029 74.0394 179.256 70.7394C168.722 66.7727 158.376 64.2394 148.229 63.0127L148.229 63.0087C148.216 63.0074 148.189 63.0074 148.176 63.0061C148.056 62.9914 147.936 62.9714 147.816 62.9581C147.802 62.9687 147.802 62.9767 147.789 62.9874C21.4957 55.3727 9.17567 165.405 9.17567 165.405C-2.58433 286.525 80.029 311.302 80.029 311.302L80.069 311.302C90.0823 315.263 100.456 318.062 111.029 320.229L111.042 320.25C111.042 320.25 112.962 320.745 116.509 321.295C117.456 321.47 118.402 321.653 119.349 321.819C119.376 321.781 119.402 321.745 119.416 321.706C138.362 324.111 187.416 325.538 246.122 289.946C246.242 289.951 246.376 289.939 246.496 289.95C284.176 252.225 321.882 214.525 359.722 176.97C377.829 159.006 394.296 138.981 418.056 127.409C455.242 109.302 501.269 117.934 522.642 147.982C539.616 171.834 541.616 197.893 529.402 223.943C516.682 251.057 493.776 265.733 464.016 266.622C423.082 267.846 382.082 267.358 341.122 267.277C332.309 267.259 325.469 269.946 319.336 276.357C306.549 289.741 293.216 302.61 280.202 315.782C278.402 317.595 275.269 320.245 272.429 323.437C276.522 323.878 281.362 324.021 283.762 324.023C330.429 324.065 377.096 324.385 423.762 323.905C446.856 323.666 470.549 324.903 492.896 320.317C561.376 306.267 604.602 237.579 591.109 167.89" fill="#142831" fill-rule="nonzero" opacity="1" stroke="none"/>
<path d="M202.896 194.097C202.896 228.629 174.909 256.622 140.376 256.622C105.842 256.622 77.8423 228.629 77.8423 194.097C77.8423 159.565 105.842 131.57 140.376 131.57C174.909 131.57 202.896 159.565 202.896 194.097" fill="#142831" fill-rule="nonzero" opacity="1" stroke="none"/>
</g>
</g>
</svg>
