<?xml version="1.0" encoding="UTF-8" standalone="no"?>
<!DOCTYPE svg PUBLIC "-//W3C//DTD SVG 1.1//EN" "http://www.w3.org/Graphics/SVG/1.1/DTD/svg11.dtd">
<!-- Created with Vectornator (http://vectornator.io/) -->
<svg stroke-miterlimit="10" style="fill-rule:nonzero;clip-rule:evenodd;stroke-linecap:round;stroke-linejoin:round;" version="1.1" viewBox="0 0 1024 1024" xml:space="preserve" xmlns="http://www.w3.org/2000/svg" xmlns:xlink="http://www.w3.org/1999/xlink">
<defs/>
<g id="Layer-1">
<path d="M0 512C0 229.23 229.23 0 512 0C794.77 0 1024 229.23 1024 512C1024 794.77 794.77 1024 512 1024C229.23 1024 0 794.77 0 512Z" fill="#fdf6e3" fill-rule="nonzero" opacity="1" stroke="none"/>
<g opacity="1">
<path d="M933.424 514.808C917.63 433.281 869.3 383.872 788.511 366.382C704.587 348.214 633.302 371.874 572.971 431.41C526.248 477.52 479.93 524.047 433.149 570.083C403.303 599.429 374.27 630.061 335.347 647.878C291.933 667.763 248.771 666.365 210.95 636.595C172.395 606.223 164.207 563.984 176.014 517.591C193.763 447.932 276.41 420.237 340.127 462.341C347.753 467.377 355.263 472.592 362.986 477.841C366.663 474.363 369.296 471.957 371.831 469.451C401.251 440.404 429.704 410.327 460.265 382.533C500.795 345.658 548.448 324.829 604.423 329.266C623.566 330.782 642.437 335.697 665.064 339.704C618.437 295.463 567.165 275.24 506.157 284.845C448.943 293.854 403.632 324.56 365.367 366.442C356.386 376.28 348.295 378.669 335.56 373.882C320.269 368.128 305.249 364.453 290.52 362.674L290.52 362.668C290.5 362.666 290.462 362.666 290.442 362.664C290.268 362.643 290.094 362.614 289.92 362.595C289.9 362.61 289.9 362.622 289.881 362.637C106.548 351.591 88.6638 511.202 88.6638 511.202C71.5924 686.897 191.518 722.839 191.518 722.839L191.576 722.839C206.112 728.585 221.17 732.645 236.519 735.788L236.538 735.819C236.538 735.819 239.325 736.536 244.474 737.335C245.848 737.589 247.222 737.854 248.596 738.095C248.635 738.039 248.674 737.987 248.693 737.931C276.197 741.42 347.405 743.49 432.626 691.86C432.8 691.868 432.994 691.851 433.168 691.866C487.866 637.142 542.603 582.455 597.533 527.979C623.817 501.92 647.721 472.872 682.212 456.086C736.194 429.821 803.008 442.342 834.035 485.929C858.674 520.529 861.578 558.329 843.848 596.118C825.383 635.448 792.131 656.737 748.93 658.027C689.509 659.802 629.992 659.094 570.532 658.976C557.739 658.951 547.809 662.849 538.906 672.148C520.344 691.562 500.989 710.23 482.098 729.338C479.485 731.968 474.937 735.811 470.814 740.441C476.756 741.082 483.782 741.288 487.266 741.292C555.009 741.352 622.753 741.817 690.496 741.12C724.02 740.774 758.414 742.569 790.853 735.916C890.262 715.536 953.012 615.898 933.424 514.808" fill="#073642" fill-rule="nonzero" opacity="1" stroke="none"/>
<path d="M364.692 552.822C364.692 600.053 326.386 638.34 279.119 638.34C231.852 638.34 193.528 600.053 193.528 552.822C193.528 505.592 231.852 467.303 279.119 467.303C326.386 467.303 364.692 505.592 364.692 552.822" fill="#073642" fill-rule="nonzero" opacity="1" stroke="none"/>
</g>
</g>
</svg>
